<?xml version="1.0" encoding="utf-8"?>
<!-- Generator: Adobe Illustrator 22.0.1, SVG Export Plug-In . SVG Version: 6.00 Build 0)  -->
<svg version="1.1" id="Layer_1" xmlns="http://www.w3.org/2000/svg" xmlns:xlink="http://www.w3.org/1999/xlink" x="0px" y="0px"
	 viewBox="0 0 1400 980" style="enable-background:new 0 0 1400 980;" xml:space="preserve">
<style type="text/css">
	.st0{fill:#AE5DC5;}
	.st1{fill:#E6E7E8;}
	.st2{fill:#231F20;}
	.st3{fill:#FFFFFF;}
	.st4{fill:#61FFA0;}
</style>
<g>
	<path d="M976.4,625.9H437c-1.1,0-1.9-0.9-1.9-1.9V279.5c0-1.1,0.9-1.9,1.9-1.9h539.4c1.1,0,1.9,0.9,1.9,1.9V624
		C978.3,625.1,977.5,625.9,976.4,625.9z M438.9,622.1h535.5V281.5H438.9V622.1z"/>
</g>
<g>
	<rect x="461.9" y="304.4" class="st0" width="489.6" height="294.7"/>
	<path d="M951.5,601H461.9c-1.1,0-1.9-0.9-1.9-1.9V304.4c0-1.1,0.9-1.9,1.9-1.9h489.6c1.1,0,1.9,0.9,1.9,1.9v294.7
		C953.4,600.2,952.5,601,951.5,601z M463.8,597.2h485.7V306.4H463.8V597.2z"/>
</g>
<g>
	<rect x="635.9" y="624" class="st1" width="143.7" height="60.1"/>
	<path d="M779.6,686H635.9c-1.1,0-1.9-0.9-1.9-1.9V624c0-1.1,0.9-1.9,1.9-1.9h143.7c1.1,0,1.9,0.9,1.9,1.9v60.1
		C781.5,685.2,780.7,686,779.6,686z M637.8,682.2h139.9V626H637.8V682.2z"/>
</g>
<g>
	<path class="st2" d="M1006.9,374.6H798.7c-1.1,0-1.9-0.9-1.9-1.9s0.9-1.9,1.9-1.9H1007c1.1,0,1.9,0.9,1.9,1.9
		S1008,374.6,1006.9,374.6z"/>
</g>
<g>
	<path class="st2" d="M1069.1,456.2H860.7c-1.1,0-1.9-0.9-1.9-1.9c0-1.1,0.9-1.9,1.9-1.9h208.4c1.1,0,1.9,0.9,1.9,1.9
		C1071.1,455.4,1070.2,456.2,1069.1,456.2z"/>
</g>
<g>
	<path class="st2" d="M554.8,523.6H330.3c-1.1,0-1.9-0.9-1.9-1.9c0-1.1,0.9-1.9,1.9-1.9h224.4c1.1,0,1.9,0.9,1.9,1.9
		C556.7,522.7,555.8,523.6,554.8,523.6z"/>
</g>
<g>
	<path class="st2" d="M605.3,453.7H400.9c-1.1,0-1.9-0.9-1.9-1.9c0-1.1,0.9-1.9,1.9-1.9h204.4c1.1,0,1.9,0.9,1.9,1.9
		C607.2,452.8,606.3,453.7,605.3,453.7z"/>
</g>
<g>
	<path class="st2" d="M687.8,383.8H570.7c-1.1,0-1.9-0.9-1.9-1.9c0-1.1,0.9-1.9,1.9-1.9h117.1c1.1,0,1.9,0.9,1.9,1.9
		C689.8,382.9,688.9,383.8,687.8,383.8z"/>
</g>
<g>
	<path class="st2" d="M822.9,686H590.5c-1.1,0-1.9-0.9-1.9-1.9c0-1.1,0.9-1.9,1.9-1.9h232.4c1.1,0,1.9,0.9,1.9,1.9
		C824.8,685.2,823.9,686,822.9,686z"/>
</g>
<g>
	<path d="M1028.2,374.6c-0.4,0-0.9-0.2-1.3-0.5c-0.8-0.7-0.9-1.9-0.2-2.7l147-173.4c0.7-0.8,1.9-0.9,2.7-0.2
		c0.8,0.7,0.9,1.9,0.2,2.7l-147,173.4C1029.3,374.4,1028.8,374.6,1028.2,374.6z"/>
</g>
<g>
	<path d="M1129.3,763.2c-1,0-1.8-0.7-1.9-1.7l-38.8-307c-0.1-1.1,0.6-2,1.7-2.2c1-0.1,2,0.6,2.2,1.7l38.8,307c0.1,1.1-0.6,2-1.7,2.2
		C1129.4,763.2,1129.4,763.2,1129.3,763.2z"/>
</g>
<g>
	<path d="M379.5,453.7c-0.6,0-1.1-0.2-1.5-0.7L212.6,247.1c-0.7-0.8-0.5-2.1,0.3-2.7c0.8-0.7,2.1-0.5,2.7,0.3L381,450.5
		c0.7,0.8,0.5,2.1-0.3,2.7C380.4,453.5,380,453.7,379.5,453.7z"/>
</g>
<g>
	<path d="M549.4,383.8c-0.1,0-0.2,0-0.2,0c-1.1-0.1-1.8-1.1-1.7-2.2l27.3-228.9c0.1-1.1,1.1-1.8,2.2-1.7c1.1,0.1,1.8,1.1,1.7,2.2
		l-27.3,228.9C551.2,383.1,550.4,383.8,549.4,383.8z"/>
</g>
<g>
	<path d="M234.8,750.2c-0.2,0-0.4,0-0.6-0.1c-1-0.3-1.6-1.4-1.2-2.4L307.2,521c0.3-1,1.4-1.6,2.4-1.2c1,0.3,1.6,1.4,1.2,2.4
		l-74.2,226.6C236.4,749.7,235.6,750.2,234.8,750.2z"/>
</g>
<g>
	<path class="st3" d="M358.2,748.3c0,68.1-55.2,123.4-123.4,123.4s-123.4-55.2-123.4-123.4s55.2-123.4,123.4-123.4
		S358.2,680.1,358.2,748.3z"/>
	<path d="M234.8,873.6c-69.1,0-125.3-56.2-125.3-125.3S165.7,623,234.8,623s125.3,56.2,125.3,125.3S303.9,873.6,234.8,873.6z
		 M234.8,626.8c-67,0-121.5,54.5-121.5,121.5s54.5,121.5,121.5,121.5s121.5-54.5,121.5-121.5S301.8,626.8,234.8,626.8z"/>
</g>
<g>
	<path class="st3" d="M1268,761.3c0,76.6-62.1,138.7-138.7,138.7s-138.7-62.1-138.7-138.7s62.1-138.7,138.7-138.7
		C1205.9,622.5,1268,684.6,1268,761.3z"/>
	<path d="M1129.3,901.9c-77.5,0-140.6-63.1-140.6-140.6s63.1-140.6,140.6-140.6c77.6,0,140.6,63.1,140.6,140.6
		S1206.8,901.9,1129.3,901.9z M1129.3,624.5c-75.4,0-136.8,61.4-136.8,136.8S1053.9,898,1129.3,898S1266,836.7,1266,761.3
		S1204.7,624.5,1129.3,624.5z"/>
</g>
<g>
	<path class="st3" d="M1301,199.2c0,69.4-56.3,125.7-125.7,125.7c-69.4,0-125.7-56.3-125.7-125.7s56.3-125.7,125.7-125.7
		S1301,129.8,1301,199.2z"/>
	<path d="M1175.3,326.9c-70.4,0-127.6-57.3-127.6-127.6c0-70.4,57.3-127.6,127.6-127.6c70.4,0,127.6,57.3,127.6,127.6
		S1245.7,326.9,1175.3,326.9z M1175.3,75.5c-68.2,0-123.8,55.5-123.8,123.8c0,68.2,55.5,123.8,123.8,123.8
		c68.2,0,123.8-55.5,123.8-123.8C1299,131,1243.5,75.5,1175.3,75.5z"/>
</g>
<g>
	<path class="st3" d="M650.3,152.9c0,40.7-33,73.6-73.6,73.6s-73.6-33-73.6-73.6s33-73.6,73.6-73.6S650.3,112.3,650.3,152.9z"/>
	<path d="M576.7,228.5c-41.7,0-75.5-33.9-75.5-75.5c0-41.7,33.9-75.5,75.5-75.5c41.7,0,75.5,33.9,75.5,75.5S618.3,228.5,576.7,228.5
		z M576.7,81.3c-39.5,0-71.7,32.2-71.7,71.7s32.2,71.7,71.7,71.7s71.7-32.2,71.7-71.7C648.3,113.4,616.2,81.3,576.7,81.3z"/>
</g>
<g>
	<path class="st3" d="M358.2,245.9c0,79.6-64.5,144.1-144.1,144.1s-144-64.5-144-144.1s64.5-144.1,144.1-144.1
		S358.2,166.3,358.2,245.9z"/>
	<path d="M214.1,391.9c-80.5,0-146-65.5-146-146s65.5-146,146-146s146,65.5,146,146S294.6,391.9,214.1,391.9z M214.1,103.8
		C135.8,103.8,72,167.5,72,245.9S135.8,388,214.1,388c78.4,0,142.1-63.8,142.1-142.1C356.3,167.5,292.5,103.8,214.1,103.8z"/>
</g>
<g>
	<path class="st4" d="M1049.6,372.7c0,11.8-9.6,21.3-21.3,21.3c-11.8,0-21.3-9.6-21.3-21.3c0-11.8,9.6-21.3,21.3-21.3
		C1040,351.3,1049.6,360.9,1049.6,372.7z"/>
	<path class="st2" d="M1028.2,396c-12.8,0-23.3-10.4-23.3-23.3c0-12.8,10.4-23.3,23.3-23.3c12.8,0,23.3,10.4,23.3,23.3
		C1051.5,385.5,1041.1,396,1028.2,396z M1028.2,353.3c-10.7,0-19.4,8.7-19.4,19.4c0,10.7,8.7,19.4,19.4,19.4
		c10.7,0,19.4-8.7,19.4-19.4C1047.7,362,1038.9,353.3,1028.2,353.3z"/>
</g>
<g>
	<path class="st4" d="M1111.8,454.3c0,11.8-9.6,21.3-21.3,21.3c-11.8,0-21.3-9.5-21.3-21.3s9.6-21.3,21.3-21.3
		C1102.2,432.9,1111.8,442.5,1111.8,454.3z"/>
	<path class="st2" d="M1090.5,477.6c-12.8,0-23.3-10.4-23.3-23.3c0-12.8,10.4-23.3,23.3-23.3c12.8,0,23.3,10.4,23.3,23.3
		C1113.7,467.1,1103.3,477.6,1090.5,477.6z M1090.5,434.9c-10.7,0-19.4,8.7-19.4,19.4c0,10.7,8.7,19.4,19.4,19.4
		c10.7,0,19.4-8.7,19.4-19.4S1101.2,434.9,1090.5,434.9z"/>
</g>
<g>
	<path class="st4" d="M330.3,521.6c0,11.8-9.6,21.3-21.3,21.3c-11.8,0-21.3-9.6-21.3-21.3c0-11.8,9.6-21.3,21.3-21.3
		C320.8,500.3,330.3,509.9,330.3,521.6z"/>
	<path class="st2" d="M309,544.9c-12.8,0-23.3-10.4-23.3-23.3c0-12.8,10.4-23.3,23.3-23.3c12.8,0,23.3,10.4,23.3,23.3
		C332.3,534.5,321.8,544.9,309,544.9z M309,502.2c-10.7,0-19.4,8.7-19.4,19.4S298.3,541,309,541c10.7,0,19.4-8.7,19.4-19.4
		C328.4,510.9,319.7,502.2,309,502.2z"/>
</g>
<g>
	<path class="st4" d="M570.7,381.9c0,11.8-9.6,21.3-21.3,21.3s-21.3-9.6-21.3-21.3c0-11.8,9.6-21.3,21.3-21.3
		S570.7,370.1,570.7,381.9z"/>
	<path class="st2" d="M549.4,405.1c-12.8,0-23.3-10.4-23.3-23.3c0-12.8,10.4-23.3,23.3-23.3c12.8,0,23.3,10.4,23.3,23.3
		S562.2,405.1,549.4,405.1z M549.4,362.5c-10.7,0-19.4,8.7-19.4,19.4c0,10.7,8.7,19.4,19.4,19.4s19.4-8.7,19.4-19.4
		C568.8,371.2,560.1,362.5,549.4,362.5z"/>
</g>
<g>
	<path class="st4" d="M400.9,451.8c0,11.8-9.6,21.3-21.3,21.3c-11.8,0-21.3-9.6-21.3-21.3c0-11.8,9.6-21.3,21.3-21.3
		C391.3,430.4,400.9,440,400.9,451.8z"/>
	<path class="st2" d="M379.5,475c-12.8,0-23.3-10.4-23.3-23.3c0-12.8,10.4-23.3,23.3-23.3c12.8,0,23.3,10.4,23.3,23.3
		S392.4,475,379.5,475z M379.5,432.3c-10.7,0-19.4,8.7-19.4,19.4c0,10.7,8.7,19.4,19.4,19.4s19.4-8.7,19.4-19.4
		C398.9,441.1,390.2,432.3,379.5,432.3z"/>
</g>
<g>
	<g>
		<path d="M630.8,153.3H605c-1.1,0-1.9-0.9-1.9-1.9c0-10.4-2.4-20.4-7.2-29.6c-0.3-0.5-0.3-1.1-0.1-1.6s0.6-0.9,1.2-1.1
			c5.8-1.9,11.2-4.7,16.3-8.1c0.8-0.5,1.8-0.5,2.5,0.2c11,10.7,17.1,25,17.1,40.3C632.7,152.4,631.9,153.3,630.8,153.3z M607,149.4
			h21.9c-0.5-13-5.6-25.1-14.7-34.4c-4.3,2.9-8.9,5.2-13.8,7C604.5,130.6,606.7,139.8,607,149.4z"/>
	</g>
	<g>
		<path d="M614.3,192.1c-0.4,0-0.8-0.1-1.1-0.3c-5-3.5-10.5-6.2-16.3-8.1c-0.5-0.2-1-0.6-1.2-1.1s-0.2-1.1,0.1-1.6
			c4.8-9.2,7.2-19.2,7.2-29.6c0-1.1,0.9-1.9,1.9-1.9h25.8c1.1,0,1.9,0.9,1.9,1.9c0,15.3-6.1,29.6-17.1,40.2
			C615.3,191.9,614.8,192.1,614.3,192.1z M600.3,180.7c4.9,1.8,9.5,4.1,13.8,7c9.1-9.3,14.3-21.4,14.7-34.4H607
			C606.7,162.9,604.5,172.1,600.3,180.7z"/>
	</g>
	<g>
		<path d="M597.6,122.8c-0.7,0-1.4-0.4-1.7-1c-4.7-9.1-11.7-17.1-20.2-23c-0.7-0.5-1-1.4-0.7-2.2c0.3-0.8,1-1.4,1.8-1.4l0,0
			c14.6,0,28.4,5.7,38.8,15.8c0.4,0.4,0.6,1,0.6,1.5c0,0.6-0.3,1.1-0.8,1.4c-5.3,3.7-11.1,6.6-17.2,8.6
			C598,122.8,597.8,122.8,597.6,122.8z M583,99.5c6.3,5.3,11.6,11.8,15.5,19c4.4-1.6,8.7-3.7,12.7-6.3
			C603.3,105.2,593.5,100.8,583,99.5z"/>
	</g>
	<g>
		<path d="M539,192.1c-0.5,0-1-0.2-1.3-0.5c-11-10.7-17.1-25-17.1-40.2c0-1.1,0.9-1.9,1.9-1.9h25.8c1.1,0,1.9,0.9,1.9,1.9
			c0,10.4,2.4,20.3,7.2,29.6c0.3,0.5,0.3,1.1,0.1,1.6s-0.6,0.9-1.2,1.1c-5.8,1.9-11.3,4.7-16.2,8.1C539.8,192,539.4,192.1,539,192.1
			z M524.5,153.3c0.5,13,5.6,25.1,14.7,34.4c4.3-2.8,8.9-5.2,13.8-7c-4.1-8.6-6.4-17.8-6.6-27.4L524.5,153.3L524.5,153.3z"/>
	</g>
	<g>
		<path d="M548.3,153.3h-25.8c-1.1,0-1.9-0.9-1.9-1.9c0-15.3,6.1-29.6,17.1-40.3c0.7-0.6,1.7-0.7,2.5-0.2c5,3.5,10.5,6.2,16.2,8.1
			c0.5,0.2,1,0.6,1.2,1.1s0.2,1.1-0.1,1.6c-4.8,9.2-7.2,19.2-7.2,29.6C550.3,152.4,549.4,153.3,548.3,153.3z M524.5,149.4h21.9
			c0.3-9.6,2.5-18.8,6.6-27.4c-4.8-1.8-9.5-4.1-13.8-7C530.2,124.3,525,136.4,524.5,149.4z"/>
	</g>
	<g>
		<path d="M555.8,183.7c-0.7,0-1.4-0.4-1.7-1c-5.1-9.8-7.7-20.3-7.7-31.4c0-1.1,0.9-1.9,1.9-1.9h28.4c1.1,0,1.9,0.9,1.9,1.9v27.1
			c0,1.1-0.9,1.9-1.9,1.9c-6.9,0-13.7,1.1-20.3,3.3C556.2,183.7,556,183.7,555.8,183.7z M550.3,153.3c0.3,9.2,2.4,17.9,6.5,26.2
			c5.9-1.8,11.9-2.8,18-3v-23.2H550.3z"/>
	</g>
	<g>
		<path d="M576.7,153.3h-28.4c-1.1,0-1.9-0.9-1.9-1.9c0-11,2.6-21.6,7.7-31.4c0.4-0.8,1.4-1.2,2.3-0.9c6.6,2.2,13.4,3.3,20.3,3.3
			c1.1,0,1.9,0.9,1.9,1.9v27.1C578.6,152.4,577.7,153.3,576.7,153.3z M550.3,149.4h24.5v-23.2c-6.1-0.2-12.1-1.2-18-3
			C552.7,131.4,550.5,140.2,550.3,149.4z"/>
	</g>
	<g>
		<path d="M605,153.3h-28.4c-1.1,0-1.9-0.9-1.9-1.9v-27.1c0-1.1,0.9-1.9,1.9-1.9c6.9,0,13.7-1.1,20.3-3.3c0.9-0.3,1.9,0.1,2.3,0.9
			c5.1,9.8,7.7,20.3,7.7,31.4C607,152.4,606.1,153.3,605,153.3z M578.6,149.4h24.5c-0.3-9.2-2.4-18-6.5-26.2c-5.8,1.8-11.9,2.8-18,3
			V149.4z"/>
	</g>
	<g>
		<path d="M597.6,183.7c-0.2,0-0.4,0-0.6-0.1c-6.6-2.2-13.4-3.3-20.3-3.3c-1.1,0-1.9-0.9-1.9-1.9v-27.1c0-1.1,0.9-1.9,1.9-1.9H605
			c1.1,0,1.9,0.9,1.9,1.9c0,11-2.6,21.6-7.7,31.4C599,183.4,598.3,183.7,597.6,183.7z M578.6,176.5c6.1,0.2,12.1,1.2,18,3
			c4-8.2,6.2-17,6.5-26.2h-24.5V176.5z"/>
	</g>
	<g>
		<path d="M555.8,122.8c-0.2,0-0.4,0-0.6-0.1c-6.1-2-11.9-5-17.2-8.6c-0.5-0.3-0.8-0.9-0.8-1.4c0-0.6,0.2-1.1,0.6-1.5
			c10.5-10.1,24.3-15.8,38.8-15.8l0,0c0.8,0,1.6,0.5,1.8,1.4c0.3,0.8,0,1.7-0.7,2.2c-8.4,5.9-15.4,13.9-20.2,23
			C557.1,122.4,556.5,122.8,555.8,122.8z M542.1,112.2c4,2.6,8.2,4.7,12.7,6.3c4-7.2,9.3-13.6,15.5-19
			C559.9,100.8,550.1,105.2,542.1,112.2z"/>
	</g>
	<g>
		<path d="M576.8,99.1h-0.2c-0.8,0-1.7-0.5-1.9-1.3c-0.3-0.8,0-1.7,0.6-2.2c0.7-0.5,1.7-0.6,2.4-0.1s1.1,1.4,0.8,2.2
			C578.3,98.5,577.7,99.1,576.8,99.1z"/>
	</g>
	<g>
		<path d="M576.7,126.2c-7.3,0-14.6-1.2-21.5-3.5c-0.5-0.2-1-0.6-1.2-1.1s-0.2-1.1,0.1-1.6c5-9.7,12.4-18.1,21.4-24.4
			c1.2-0.9,3.2,0.1,3.2,1.6v27.1C578.6,125.3,577.7,126.2,576.7,126.2z M558.6,119.7c5.3,1.5,10.7,2.4,16.1,2.6V101
			C568.2,106.1,562.7,112.5,558.6,119.7z"/>
	</g>
	<g>
		<path d="M576.7,126.2c-1.1,0-1.9-0.9-1.9-1.9V97.2c0-1.1,0.9-1.9,1.9-1.9c0.4,0,0.9,0.1,1.3,0.4c9,6.3,16.3,14.7,21.4,24.4
			c0.3,0.5,0.3,1.1,0.1,1.6s-0.6,0.9-1.2,1.1C591.3,125,584,126.2,576.7,126.2z M578.6,100.9v21.4c5.5-0.2,10.9-1,16.2-2.6
			C590.7,112.5,585.2,106.1,578.6,100.9z"/>
	</g>
	<g>
		<path d="M576.8,207.4c-0.8,0-1.6-0.5-1.8-1.4c-0.3-0.8,0-1.7,0.7-2.2c8.4-5.9,15.4-13.9,20.2-23c0.4-0.8,1.4-1.2,2.3-0.9
			c6.1,2,11.9,5,17.2,8.6c0.5,0.3,0.8,0.9,0.8,1.4c0,0.6-0.2,1.1-0.6,1.5C605.2,201.7,591.4,207.4,576.8,207.4L576.8,207.4z
			 M598.5,184.2c-4,7.2-9.3,13.6-15.5,19c10.5-1.3,20.3-5.7,28.2-12.7C607.2,187.9,603,185.8,598.5,184.2z"/>
	</g>
	<g>
		<path d="M576.5,207.4L576.5,207.4c-14.6,0-28.4-5.7-38.8-15.8c-0.4-0.4-0.6-1-0.6-1.5c0-0.6,0.3-1.1,0.8-1.4
			c5.3-3.7,11.1-6.6,17.2-8.6c0.9-0.3,1.9,0.1,2.3,0.9c4.7,9.1,11.7,17,20.2,23c0.7,0.5,1,1.4,0.7,2.2S577.4,207.4,576.5,207.4z
			 M542.1,190.4c8,7.1,17.8,11.4,28.2,12.7c-6.3-5.3-11.6-11.8-15.5-19C550.4,185.8,546.1,187.9,542.1,190.4z"/>
	</g>
	<g>
		<path d="M576.6,207.5c-0.4,0-0.8-0.1-1.1-0.3c0,0-0.1,0-0.1-0.1c-0.8-0.4-1.1-1.3-0.9-2.1c0.5-1.7,3.5-1.7,3.9,0
			c0.2,0.8,0,1.7-0.7,2.2C577.5,207.3,577,207.5,576.6,207.5z"/>
	</g>
	<g>
		<path d="M576.7,207.4h-0.2c-0.4,0-0.8-0.1-1.1-0.4c-9-6.3-16.3-14.7-21.4-24.4c-0.3-0.5-0.3-1.1-0.1-1.6s0.6-0.9,1.2-1.1
			c7-2.3,14.2-3.5,21.5-3.5c1.1,0,1.9,0.9,1.9,1.9v27.1C578.6,206.5,577.7,207.4,576.7,207.4z M558.6,182.9
			c4.1,7.2,9.6,13.6,16.1,18.8v-21.4C569.3,180.5,563.9,181.4,558.6,182.9z"/>
	</g>
	<g>
		<path d="M576.8,207.4h-0.2c-1.1,0-1.9-0.9-1.9-1.9v-27.1c0-1.1,0.9-1.9,1.9-1.9c7.3,0,14.6,1.2,21.5,3.5c0.5,0.2,1,0.6,1.2,1.1
			s0.2,1.1-0.1,1.6c-5,9.7-12.4,18.1-21.4,24.4C577.6,207.3,577.2,207.4,576.8,207.4z M578.6,180.4v21.4c6.5-5.2,12-11.6,16.1-18.8
			C589.5,181.4,584.1,180.5,578.6,180.4z"/>
	</g>
</g>
<g>
	<g>
		<path d="M292,208.8H136.3c-8.1,0-14.7-6.6-14.7-14.7v-28.4c0-8.1,6.6-14.7,14.7-14.7H292c8.1,0,14.7,6.6,14.7,14.7v28.4
			C306.7,202.2,300.1,208.8,292,208.8z M136.3,154.9c-6,0-10.8,4.9-10.8,10.8v28.4c0,6,4.9,10.8,10.8,10.8H292
			c6,0,10.8-4.9,10.8-10.8v-28.4c0-6-4.9-10.8-10.8-10.8H136.3z"/>
	</g>
	<g>
		<path d="M292,274.8H136.3c-8.1,0-14.7-6.6-14.7-14.7v-28.4c0-8.1,6.6-14.7,14.7-14.7H292c8.1,0,14.7,6.6,14.7,14.7v28.4
			C306.7,268.2,300.1,274.8,292,274.8z M136.3,220.9c-6,0-10.8,4.9-10.8,10.8v28.4c0,6,4.9,10.8,10.8,10.8H292
			c6,0,10.8-4.9,10.8-10.8v-28.4c0-6-4.9-10.8-10.8-10.8L136.3,220.9L136.3,220.9z"/>
	</g>
	<g>
		<path d="M292,340.8H136.3c-8.1,0-14.7-6.6-14.7-14.7v-28.4c0-8.1,6.6-14.7,14.7-14.7H292c8.1,0,14.7,6.6,14.7,14.7v28.4
			C306.7,334.2,300.1,340.8,292,340.8z M136.3,286.9c-6,0-10.8,4.9-10.8,10.8v28.4c0,6,4.9,10.8,10.8,10.8H292
			c6,0,10.8-4.9,10.8-10.8v-28.4c0-6-4.9-10.8-10.8-10.8H136.3z"/>
	</g>
	<g>
		<path d="M282.8,189.2c-5.1,0-9.3-4.2-9.3-9.3s4.2-9.3,9.3-9.3c5.1,0,9.3,4.2,9.3,9.3S287.9,189.2,282.8,189.2z M282.8,174.4
			c-3,0-5.5,2.4-5.5,5.5s2.4,5.5,5.5,5.5c3,0,5.5-2.4,5.5-5.5S285.8,174.4,282.8,174.4z"/>
	</g>
	<g>
		<path d="M253.4,189.2c-5.1,0-9.3-4.2-9.3-9.3s4.2-9.3,9.3-9.3s9.3,4.2,9.3,9.3S258.6,189.2,253.4,189.2z M253.4,174.4
			c-3,0-5.5,2.4-5.5,5.5s2.4,5.5,5.5,5.5s5.5-2.4,5.5-5.5S256.4,174.4,253.4,174.4z"/>
	</g>
	<g>
		<path d="M204.4,188.5h-63.9c-1.1,0-1.9-0.9-1.9-1.9c0-1.1,0.9-1.9,1.9-1.9h63.9c1.1,0,1.9,0.9,1.9,1.9
			C206.4,187.6,205.5,188.5,204.4,188.5z"/>
	</g>
	<g>
		<path d="M204.4,175.2h-63.9c-1.1,0-1.9-0.9-1.9-1.9s0.9-1.9,1.9-1.9h63.9c1.1,0,1.9,0.9,1.9,1.9S205.5,175.2,204.4,175.2z"/>
	</g>
	<g>
		<path d="M282.8,255.2c-5.1,0-9.3-4.2-9.3-9.3s4.2-9.3,9.3-9.3c5.1,0,9.3,4.2,9.3,9.3C292.1,251.1,287.9,255.2,282.8,255.2z
			 M282.8,240.5c-3,0-5.5,2.4-5.5,5.5c0,3,2.4,5.4,5.5,5.4c3,0,5.5-2.4,5.5-5.4C288.2,242.9,285.8,240.5,282.8,240.5z"/>
	</g>
	<g>
		<path d="M253.4,255.2c-5.1,0-9.3-4.2-9.3-9.3s4.2-9.3,9.3-9.3s9.3,4.2,9.3,9.3C262.7,251.1,258.6,255.2,253.4,255.2z M253.4,240.5
			c-3,0-5.5,2.4-5.5,5.5c0,3,2.4,5.4,5.5,5.4s5.5-2.4,5.5-5.4C258.9,242.9,256.4,240.5,253.4,240.5z"/>
	</g>
	<g>
		<path d="M204.4,254.5h-63.9c-1.1,0-1.9-0.9-1.9-1.9s0.9-1.9,1.9-1.9h63.9c1.1,0,1.9,0.9,1.9,1.9S205.5,254.5,204.4,254.5z"/>
	</g>
	<g>
		<path d="M204.4,241.2h-63.9c-1.1,0-1.9-0.9-1.9-1.9s0.9-1.9,1.9-1.9h63.9c1.1,0,1.9,0.9,1.9,1.9S205.5,241.2,204.4,241.2z"/>
	</g>
	<g>
		<path d="M292,340.8H136.3c-8.1,0-14.7-6.6-14.7-14.7v-28.4c0-8.1,6.6-14.7,14.7-14.7H292c8.1,0,14.7,6.6,14.7,14.7v28.4
			C306.7,334.2,300.1,340.8,292,340.8z M136.3,286.9c-6,0-10.8,4.9-10.8,10.8v28.4c0,6,4.9,10.8,10.8,10.8H292
			c6,0,10.8-4.9,10.8-10.8v-28.4c0-6-4.9-10.8-10.8-10.8H136.3z"/>
	</g>
	<g>
		<path d="M282.8,321.2c-5.1,0-9.3-4.2-9.3-9.3s4.2-9.3,9.3-9.3c5.1,0,9.3,4.2,9.3,9.3S287.9,321.2,282.8,321.2z M282.8,306.5
			c-3,0-5.5,2.4-5.5,5.5s2.4,5.5,5.5,5.5c3,0,5.5-2.4,5.5-5.5S285.8,306.5,282.8,306.5z"/>
	</g>
	<g>
		<path d="M253.4,321.2c-5.1,0-9.3-4.2-9.3-9.3s4.2-9.3,9.3-9.3s9.3,4.2,9.3,9.3S258.6,321.2,253.4,321.2z M253.4,306.5
			c-3,0-5.5,2.4-5.5,5.5s2.4,5.5,5.5,5.5s5.5-2.4,5.5-5.5S256.4,306.5,253.4,306.5z"/>
	</g>
	<g>
		<path d="M204.4,320.5h-63.9c-1.1,0-1.9-0.9-1.9-1.9s0.9-1.9,1.9-1.9h63.9c1.1,0,1.9,0.9,1.9,1.9S205.5,320.5,204.4,320.5z"/>
	</g>
	<g>
		<path d="M204.4,307.2h-63.9c-1.1,0-1.9-0.9-1.9-1.9c0-1.1,0.9-1.9,1.9-1.9h63.9c1.1,0,1.9,0.9,1.9,1.9
			C206.4,306.3,205.5,307.2,204.4,307.2z"/>
	</g>
</g>
<g>
	<g>
		<path class="st3" d="M1171,821.3c-12.2,2.2-26.4,3.4-41.7,3.4c-15.3,0-29.6-1.2-41.7-3.4c-23-4.1-38.4-11.5-38.4-19.9v39.9
			c0,12.9,35.9,23.4,80.1,23.4c44.3,0,80.1-10.4,80.1-23.4v-39.9C1209.4,809.8,1194,817.2,1171,821.3z"/>
		<path d="M1129.3,866.6c-39.8,0-82.1-8.9-82.1-25.3v-39.9c0-1.1,0.9-1.9,1.9-1.9c1.1,0,1.9,0.9,1.9,1.9c0,7,14.4,14.1,36.8,18
			c24.8,4.4,58,4.4,82.8,0c22.4-4,36.8-11.1,36.8-18c0-1.1,0.9-1.9,1.9-1.9s1.9,0.9,1.9,1.9v39.9
			C1211.4,857.7,1169.1,866.6,1129.3,866.6z M1051.1,809.4v31.8c0,10.1,32.1,21.4,78.2,21.4s78.2-11.3,78.2-21.4v-31.8
			c-5.9,5.8-18.4,10.7-36.1,13.8c-25.3,4.5-58.9,4.5-84.2,0C1069.4,820.1,1057,815.2,1051.1,809.4z"/>
	</g>
	<g>
		<path class="st3" d="M1129.3,778c-44.3,0-80.1,10.5-80.1,23.4c0,8.4,15.4,15.8,38.4,19.9c12.2,2.2,26.4,3.4,41.7,3.4
			c15.3,0,29.6-1.2,41.7-3.4c23-4.1,38.4-11.5,38.4-19.9C1209.4,788.5,1173.5,778,1129.3,778z"/>
		<path d="M1129.3,826.7c-14.9,0-29.4-1.2-42.1-3.5c-25.4-4.5-40-12.5-40-21.8c0-15.8,41.7-25.3,82.1-25.3
			c40.3,0,82.1,9.5,82.1,25.3c0,9.4-14.6,17.3-40,21.8C1158.7,825.5,1144.2,826.7,1129.3,826.7z M1129.3,780
			c-46.1,0-78.2,11.3-78.2,21.4c0,7,14.4,14.1,36.8,18c24.8,4.4,58,4.4,82.8,0c22.4-4,36.8-11.1,36.8-18
			C1207.5,791.3,1175.4,780,1129.3,780z"/>
	</g>
	<g>
		<path class="st3" d="M1171,761.2c-12.2,2.2-26.4,3.4-41.7,3.4c-15.3,0-29.6-1.2-41.7-3.4c-23-4.1-38.4-11.5-38.4-19.9v39.9
			c0,12.9,35.9,23.4,80.1,23.4c44.3,0,80.1-10.5,80.1-23.4v-39.9C1209.4,749.8,1194,757.1,1171,761.2z"/>
		<path d="M1129.3,806.5c-40.3,0-82.1-9.5-82.1-25.3v-39.9c0-1.1,0.9-1.9,1.9-1.9c1.1,0,1.9,0.9,1.9,1.9c0,7,14.4,14.1,36.8,18
			c24.8,4.4,58,4.4,82.8,0c22.4-4,36.8-11.1,36.8-18c0-1.1,0.9-1.9,1.9-1.9s1.9,0.9,1.9,1.9v39.9
			C1211.4,797,1169.6,806.5,1129.3,806.5z M1051.1,749.3v31.9c0,10.1,32.1,21.4,78.2,21.4s78.2-11.3,78.2-21.4v-31.9
			c-5.9,5.8-18.4,10.7-36.1,13.8c-25.3,4.5-58.9,4.5-84.2,0C1069.4,760,1057,755.2,1051.1,749.3z"/>
	</g>
	<g>
		<path class="st3" d="M1129.3,717.9c-44.3,0-80.1,10.5-80.1,23.4c0,8.4,15.4,15.8,38.4,19.9c12.2,2.2,26.4,3.4,41.7,3.4
			c15.3,0,29.6-1.2,41.7-3.4c23-4.1,38.4-11.5,38.4-19.9C1209.4,728.4,1173.5,717.9,1129.3,717.9z"/>
		<path d="M1129.3,766.6c-14.9,0-29.4-1.2-42.1-3.5c-25.4-4.5-40-12.5-40-21.8c0-15.8,41.7-25.3,82.1-25.3
			c40.3,0,82.1,9.5,82.1,25.3c0,9.4-14.6,17.3-40,21.8C1158.7,765.4,1144.2,766.6,1129.3,766.6z M1129.3,719.9
			c-46.1,0-78.2,11.3-78.2,21.4c0,7,14.4,14.1,36.8,18c24.8,4.4,58,4.4,82.8,0c22.4-4,36.8-11.1,36.8-18
			C1207.5,731.2,1175.4,719.9,1129.3,719.9z"/>
	</g>
	<g>
		<path class="st3" d="M1171,701.2c-12.2,2.2-26.4,3.4-41.7,3.4c-15.3,0-29.6-1.2-41.7-3.4c-23-4.1-38.4-11.5-38.4-19.9v39.9
			c0,12.9,35.9,23.4,80.1,23.4c44.3,0,80.1-10.5,80.1-23.4v-39.9C1209.4,689.7,1194,697.1,1171,701.2z"/>
		<path d="M1129.3,746.4c-40.3,0-82.1-9.5-82.1-25.3v-39.9c0-1.1,0.9-1.9,1.9-1.9c1.1,0,1.9,0.9,1.9,1.9c0,7,14.4,14.1,36.8,18
			c24.8,4.4,57.9,4.4,82.8,0c22.4-4,36.8-11.1,36.8-18c0-1.1,0.9-1.9,1.9-1.9s1.9,0.9,1.9,1.9v39.9
			C1211.4,736.9,1169.6,746.4,1129.3,746.4z M1051.1,689.3v31.9c0,10.1,32.1,21.4,78.2,21.4s78.2-11.3,78.2-21.4v-31.9
			c-5.9,5.8-18.4,10.7-36.1,13.8c-25.3,4.5-58.9,4.5-84.2,0C1069.4,699.9,1057,695.1,1051.1,689.3z"/>
	</g>
	<g>
		<path class="st3" d="M1129.3,657.9c-44.3,0-80.1,10.4-80.1,23.4c0,8.4,15.4,15.8,38.4,19.9c12.2,2.2,26.4,3.4,41.7,3.4
			c15.3,0,29.6-1.2,41.7-3.4c23-4.1,38.4-11.5,38.4-19.9C1209.4,668.3,1173.5,657.9,1129.3,657.9z"/>
		<path d="M1129.3,706.5c-14.9,0-29.4-1.2-42.1-3.4c-25.4-4.5-40-12.5-40-21.9c0-16.4,42.3-25.3,82.1-25.3
			c39.8,0,82.1,8.9,82.1,25.3c0,9.4-14.6,17.3-40,21.9C1158.7,705.3,1144.2,706.5,1129.3,706.5z M1129.3,659.8
			c-46.1,0-78.2,11.3-78.2,21.4c0,7,14.4,14.1,36.8,18c24.8,4.4,57.9,4.4,82.8,0c22.4-4,36.8-11.1,36.8-18
			C1207.5,671.1,1175.4,659.8,1129.3,659.8z"/>
	</g>
	<g>
		<g>
			<path class="st3" d="M1169.8,694.1c-12.1,2.2-26.1,3.3-40.5,3.3"/>
			<path d="M1129.3,699.3c-1.1,0-1.9-0.9-1.9-1.9c0-1.1,0.9-1.9,1.9-1.9c14.2,0,28.1-1.1,40.1-3.3c1.1-0.2,2.1,0.5,2.2,1.6
				c0.2,1.1-0.5,2.1-1.6,2.2C1157.8,698.2,1143.7,699.3,1129.3,699.3z"/>
		</g>
		<g>
			<path class="st3" d="M1129.3,665.1c20,0,39,2.2,53.3,6.2"/>
			<path d="M1182.6,673.2c-0.2,0-0.3,0-0.5-0.1c-14.2-3.9-33-6.1-52.8-6.1c-1.1,0-1.9-0.9-1.9-1.9s0.9-1.9,1.9-1.9
				c20.2,0,39.3,2.2,53.9,6.2c1,0.3,1.6,1.4,1.3,2.4C1184.2,672.6,1183.5,673.2,1182.6,673.2z"/>
		</g>
		<g>
			<path class="st3" d="M1169.8,694.1c-12.1,2.2-26.1,3.3-40.5,3.3"/>
			<path d="M1129.3,699.3c-1.1,0-1.9-0.9-1.9-1.9c0-1.1,0.9-1.9,1.9-1.9c14.2,0,28.1-1.1,40.1-3.3c1.1-0.2,2.1,0.5,2.2,1.6
				c0.2,1.1-0.5,2.1-1.6,2.2C1157.8,698.2,1143.7,699.3,1129.3,699.3z"/>
		</g>
		<g>
			<path class="st3" d="M1129.3,665.1c20,0,39,2.2,53.3,6.2"/>
			<path d="M1182.6,673.2c-0.2,0-0.3,0-0.5-0.1c-14.2-3.9-33-6.1-52.8-6.1c-1.1,0-1.9-0.9-1.9-1.9s0.9-1.9,1.9-1.9
				c20.2,0,39.3,2.2,53.9,6.2c1,0.3,1.6,1.4,1.3,2.4C1184.2,672.6,1183.5,673.2,1182.6,673.2z"/>
		</g>
	</g>
</g>
<g>
	<g>
		<path d="M1176.7,293.6c-5.5,0-10-4.5-10-10s4.5-10,10-10s10,4.5,10,10C1186.7,289.2,1182.2,293.6,1176.7,293.6z M1176.7,277.5
			c-3.4,0-6.1,2.8-6.1,6.1c0,3.4,2.8,6.1,6.1,6.1c3.4,0,6.1-2.7,6.1-6.1C1182.8,280.3,1180.1,277.5,1176.7,277.5z"/>
	</g>
	<g>
		<path d="M1240.6,130h-127.7c-1.1,0-1.9-0.9-1.9-1.9v-15.5c0-7.1,5.8-12.9,12.9-12.9h105.8c7.1,0,12.9,5.8,12.9,12.9v15.5
			C1242.5,129.1,1241.6,130,1240.6,130z M1114.8,126.1h123.8v-13.6c0-5-4-9-9-9h-105.8c-5,0-9,4-9,9V126.1z"/>
	</g>
	<g>
		<path d="M1240.6,269.9h-127.7c-1.1,0-1.9-0.9-1.9-1.9V128.1c0-1.1,0.9-1.9,1.9-1.9h127.7c1.1,0,1.9,0.9,1.9,1.9V268
			C1242.5,269.1,1241.6,269.9,1240.6,269.9z M1114.8,266h123.8V130h-123.8V266z"/>
	</g>
	<g>
		<path d="M1229.6,298.8h-105.8c-7.1,0-12.9-5.8-12.9-12.9V268c0-1.1,0.9-1.9,1.9-1.9h127.7c1.1,0,1.9,0.9,1.9,1.9v17.9
			C1242.5,293,1236.7,298.8,1229.6,298.8z M1114.8,269.9v16c0,5,4,9,9,9h105.8c5,0,9-4,9-9v-16H1114.8z"/>
	</g>
	<g>
		<path d="M1127.9,193c-0.5,0-1-0.2-1.4-0.6c-0.8-0.8-0.8-2,0-2.7l48.9-48.9c0.8-0.8,2-0.8,2.7,0s0.8,2,0,2.7l-48.9,48.9
			C1128.8,192.8,1128.3,193,1127.9,193z"/>
	</g>
	<g>
		<path d="M1176.7,253.4c-0.5,0-1-0.2-1.4-0.6c-0.8-0.8-0.8-2,0-2.7l48.9-48.9c0.8-0.8,2-0.8,2.7,0c0.8,0.8,0.8,2,0,2.7l-48.9,48.9
			C1177.7,253.2,1177.2,253.4,1176.7,253.4z"/>
	</g>
	<g>
		<path d="M1133.1,242c-0.5,0-1-0.2-1.4-0.6c-0.8-0.8-0.8-2,0-2.7l88.7-88.7c0.8-0.8,2-0.8,2.7,0c0.8,0.8,0.8,2,0,2.7l-88.7,88.7
			C1134.1,241.8,1133.6,242,1133.1,242z"/>
	</g>
</g>
<g>
	<g>
		<g>
			<path class="st3" d="M312.3,689.6c0-6.8-5.5-12.3-12.4-12.3H169.6c-6.8,0-12.4,5.5-12.4,12.3v89.6h155.1L312.3,689.6L312.3,689.6
				z"/>
			<path d="M312.3,781.1H157.2c-1.1,0-1.9-0.9-1.9-1.9v-89.6c0-7.9,6.4-14.3,14.3-14.3H300c7.9,0,14.3,6.4,14.3,14.3v89.6
				C314.3,780.3,313.4,781.1,312.3,781.1z M159.2,777.3h151.2v-87.6c0-5.7-4.7-10.4-10.4-10.4H169.6c-5.7,0-10.4,4.7-10.4,10.4
				L159.2,777.3L159.2,777.3z"/>
		</g>
		<g>
			<path class="st3" d="M157.2,779.2v4c0,6.8,5.5,12.3,12.4,12.3H300c6.8,0,12.4-5.5,12.4-12.3v-4H157.2z"/>
			<path d="M300,797.5H169.6c-7.9,0-14.3-6.4-14.3-14.3v-4c0-1.1,0.9-1.9,1.9-1.9h155.1c1.1,0,1.9,0.9,1.9,1.9v4
				C314.3,791.1,307.9,797.5,300,797.5z M159.2,781.1v2.1c0,5.7,4.7,10.4,10.4,10.4H300c5.7,0,10.4-4.7,10.4-10.4v-2.1H159.2z"/>
		</g>
		<g>
			<path class="st3" d="M142.8,795.3v4c0,6.8,5.5,12.4,12.4,12.4h159.2c6.8,0,12.4-5.5,12.4-12.4v-4H142.8z"/>
			<path d="M314.4,813.6H155.2c-7.9,0-14.3-6.4-14.3-14.3v-4c0-1.1,0.9-1.9,1.9-1.9h183.9c1.1,0,1.9,0.9,1.9,1.9v4
				C328.7,807.2,322.3,813.6,314.4,813.6z M144.8,797.2v2.1c0,5.7,4.7,10.4,10.4,10.4h159.2c5.7,0,10.4-4.7,10.4-10.4v-2.1H144.8z"
				/>
		</g>
		<g>
			<rect x="217.8" y="795.3" class="st3" width="34" height="3.7"/>
			<path d="M251.8,800.9h-34c-1.1,0-1.9-0.9-1.9-1.9v-3.7c0-1.1,0.9-1.9,1.9-1.9h34c1.1,0,1.9,0.9,1.9,1.9v3.7
				C253.7,800.1,252.8,800.9,251.8,800.9z"/>
		</g>
		<g>
			<path class="st3" d="M237.9,787.4c0,1.7-1.4,3.1-3.1,3.1c-1.7,0-3.1-1.4-3.1-3.1c0-1.7,1.4-3.1,3.1-3.1
				C236.5,784.3,237.9,785.7,237.9,787.4z"/>
			<path d="M234.8,792.4c-2.8,0-5-2.3-5-5s2.3-5,5-5c2.8,0,5,2.3,5,5S237.6,792.4,234.8,792.4z M234.8,786.2c-0.6,0-1.2,0.5-1.2,1.2
				s0.5,1.2,1.2,1.2s1.2-0.5,1.2-1.2S235.4,786.2,234.8,786.2z"/>
		</g>
		<g>
			<path d="M250.8,789.3h-6.7c-1.1,0-1.9-0.9-1.9-1.9c0-1.1,0.9-1.9,1.9-1.9h6.7c1.1,0,1.9,0.9,1.9,1.9
				C252.7,788.4,251.8,789.3,250.8,789.3z"/>
		</g>
		<g>
			<path d="M225.5,789.3h-6.7c-1.1,0-1.9-0.9-1.9-1.9c0-1.1,0.9-1.9,1.9-1.9h6.7c1.1,0,1.9,0.9,1.9,1.9
				C227.5,788.4,226.6,789.3,225.5,789.3z"/>
		</g>
	</g>
	<g>
		<path d="M209.6,760c-0.5,0-1-0.2-1.4-0.6c-0.8-0.8-0.8-2,0-2.7l50.4-50.4c0.8-0.8,2-0.8,2.7,0c0.8,0.8,0.8,2,0,2.7L211,759.5
			C210.6,759.9,210.1,760,209.6,760z"/>
	</g>
	<g>
		<path d="M264.4,747.2c-0.5,0-1-0.2-1.4-0.6c-0.8-0.8-0.8-2,0-2.7l24.7-24.7c0.8-0.8,2-0.8,2.7,0c0.8,0.8,0.8,2,0,2.7l-24.7,24.7
			C265.4,747,264.9,747.2,264.4,747.2z"/>
	</g>
	<g>
		<path d="M180.5,747.2c-0.5,0-1-0.2-1.4-0.6c-0.8-0.8-0.8-2,0-2.7l24.7-24.7c0.8-0.8,2-0.8,2.7,0c0.8,0.8,0.8,2,0,2.7l-24.7,24.7
			C181.5,747,181,747.2,180.5,747.2z"/>
	</g>
</g>
</svg>
