<svg id="Lager_1" data-name="Lager 1" xmlns="http://www.w3.org/2000/svg" viewBox="0 0 326.84 851.41"><defs><style>.cls-1{fill:#5b6d84;}.cls-2{fill:#000205;}.cls-3{fill:#fff;}.cls-4{fill:#353327;}.cls-5{fill:none;stroke:#353327;stroke-miterlimit:10;stroke-width:5px;}</style></defs><title>al</title><path class="cls-1" d="M344.46,28.21s40.43,54.91-16.18,118.37l-5,.21a58.91,58.91,0,0,0-22.41-5.72,48.22,48.22,0,0,0-7.07-13.27v0c-12.81-57.51,48.26-98,50.58-99.53A.11.11,0,0,1,344.46,28.21Z" transform="translate(-36.74 -25.71)"/><path class="cls-1" d="M305.76,244.13a75.09,75.09,0,0,1,5.62,30.07l-2.78,0a143.11,143.11,0,0,1-16.94,4.91c20-14.68-2.63-38.27-2.63-38.27A86.55,86.55,0,0,1,305.76,244.13Z" transform="translate(-36.74 -25.71)"/><path class="cls-2" d="M289,240.81s22.62,23.59,2.63,38.27c-37.65,8.42-44.82-9.38-44.82-9.38C248.92,241.78,272.37,239.11,289,240.81Z" transform="translate(-36.74 -25.71)"/><path class="cls-3" d="M344.39,28.24c-2.32,1.53-63.39,42-50.58,99.53a34.74,34.74,0,0,0-20.47-13.13C265.34,50.86,342.14,28.87,344.39,28.24Z" transform="translate(-36.74 -25.71)"/><path class="cls-4" d="M200.14,304.17v28.3s12.68,4.61,16.73-5.79l4.89,5.79s-29.14,20.54-44.17,1l1.73-5.1s11.57,9.84,13.3,4.06,0-27.13,0-27.13l-22-21.37s1.73-11,5.79-10.39S196.33,284,196.33,284l14.76-10.43s12.71,1.77,10.39,10.43Z" transform="translate(-36.74 -25.71)"/><path class="cls-2" d="M152.2,269.7s-7.17,17.8-44.83,9.38c-20-14.68,0-31.62,0-31.62C124.9,242.88,150.08,241.43,152.2,269.7Z" transform="translate(-36.74 -25.71)"/><path class="cls-3" d="M176.45,273.58c-4.06-.59-5.79,10.39-5.79,10.39l22,21.37s1.74,21.34,0,27.13-13.3-4.06-13.3-4.06l-1.73,5.1c15,19.5,44.17-1,44.17-1l-4.89-5.79c-4.05,10.4-16.73,5.79-16.73,5.79v-28.3L221.48,284c2.32-8.66-10.39-10.43-10.39-10.43L196.33,284S180.5,274.17,176.45,273.58Zm-21.38,7.51c45-50.82,81.41,0,81.41,0l-1.14,51.38c61.63-6.06,75.31-35.09,76-58.27a75.09,75.09,0,0,0-5.62-30.07c-87.74-82-223.33-2.87-223.33-2.87-12,86.6,73.23,91.21,73.23,91.21ZM52.32,874.61s-29.44-621.82,0-625.28c0,0-20.78-60.63,29.45-97A58.28,58.28,0,0,1,85,146.58c3.77-6,10.73-15.17,20.57-20.72a34.55,34.55,0,0,1,19.47-4.71,51.49,51.49,0,0,1,5.58-8.94c9-11.81,29.27-29,62.84-10.11,0,0,42.44-17.32,59.76,13a44.15,44.15,0,0,1,20.09-.45,34.74,34.74,0,0,1,20.47,13.13v0a48.22,48.22,0,0,1,7.07,13.27,58.91,58.91,0,0,1,22.41,5.72c19.92,9.45,42.68,34.64,20.89,101.67,0,0,21.65,55.43,2.6,96.13,0,0,26.05,244.23,7.83,530Z" transform="translate(-36.74 -25.71)"/><path class="cls-1" d="M155.66,332.47s-85.25-4.61-73.23-91.21c0,0,135.59-79.13,223.33,2.87A86.55,86.55,0,0,0,289,240.81c-16.66-1.7-40.11,1-42.19,28.89,0,0,7.17,17.8,44.82,9.38a143.11,143.11,0,0,0,16.94-4.91l2.78,0c-.73,23.18-14.41,52.21-76,58.27l1.14-51.38s-36.37-50.82-81.41,0Zm-48.29-85s-20,16.94,0,31.62c37.66,8.42,44.83-9.38,44.83-9.38C150.08,241.43,124.9,242.88,107.37,247.46Z" transform="translate(-36.74 -25.71)"/><path class="cls-3" d="M105.6,125.86c8.11-60.62-48.08-89-48.08-89s66.58,14.44,73.13,75.34a51.49,51.49,0,0,0-5.58,8.94A34.55,34.55,0,0,0,105.6,125.86Z" transform="translate(-36.74 -25.71)"/><path class="cls-1" d="M85,146.58c-71.78-34-27.51-109.71-27.51-109.71s56.19,28.37,48.08,89C95.76,131.41,88.8,140.62,85,146.58Z" transform="translate(-36.74 -25.71)"/><path class="cls-5" d="M293.81,127.8a48.22,48.22,0,0,1,7.07,13.27,58.91,58.91,0,0,1,22.41,5.72c19.92,9.45,42.68,34.64,20.89,101.67,0,0,21.65,55.43,2.6,96.13,0,0,26.05,244.23,7.83,530H52.32s-29.44-621.82,0-625.28c0,0-20.78-60.63,29.45-97A58.28,58.28,0,0,1,85,146.58c3.77-6,10.73-15.17,20.57-20.72a34.55,34.55,0,0,1,19.47-4.71,51.49,51.49,0,0,1,5.58-8.94c9-11.81,29.27-29,62.84-10.11,0,0,42.44-17.32,59.76,13a44.15,44.15,0,0,1,20.09-.45,34.74,34.74,0,0,1,20.47,13.13" transform="translate(-36.74 -25.71)"/><path class="cls-5" d="M130.65,112.21c-6.55-60.9-73.13-75.34-73.13-75.34S13.25,112.56,85,146.58" transform="translate(-36.74 -25.71)"/><path class="cls-5" d="M105.6,125.86c8.11-60.62-48.08-89-48.08-89" transform="translate(-36.74 -25.71)"/><path class="cls-5" d="M344.46,28.21s40.43,54.91-16.18,118.37" transform="translate(-36.74 -25.71)"/><path class="cls-5" d="M273.34,114.71v-.07c-8-63.78,68.8-85.77,71.05-86.4" transform="translate(-36.74 -25.71)"/><path class="cls-5" d="M344.46,28.21a.11.11,0,0,0-.07,0c-2.32,1.53-63.39,42-50.58,99.53v0" transform="translate(-36.74 -25.71)"/><path class="cls-5" d="M311.38,274.2c-.73,23.18-14.41,52.21-76,58.27l1.14-51.38s-36.37-50.82-81.41,0l.59,51.38s-85.25-4.61-73.23-91.21c0,0,135.59-79.13,223.33,2.87A75.09,75.09,0,0,1,311.38,274.2Z" transform="translate(-36.74 -25.71)"/><path class="cls-5" d="M90.43,253.38a107.81,107.81,0,0,1,16.94-5.92c17.53-4.58,42.71-6,44.83,22.24,0,0-7.17,17.8-44.83,9.38a145.88,145.88,0,0,1-16.94-4.91" transform="translate(-36.74 -25.71)"/><path class="cls-5" d="M107.37,247.46s-20,16.94,0,31.62" transform="translate(-36.74 -25.71)"/><path class="cls-5" d="M305.76,244.13A86.55,86.55,0,0,0,289,240.81c-16.66-1.7-40.11,1-42.19,28.89,0,0,7.17,17.8,44.82,9.38a143.11,143.11,0,0,0,16.94-4.91" transform="translate(-36.74 -25.71)"/><path class="cls-5" d="M289,240.81s22.62,23.59,2.63,38.27" transform="translate(-36.74 -25.71)"/></svg>